#N canvas 266 41 879 663 12;
#X obj 46 382 r peerslist;
#X obj 33 408 cnv 15 800 250 empty empty empty 20 12 0 14 -162722 -66577
0;
#X obj 53 420 aooch 1 \$1;
#X obj 148 420 aooch 2 \$1;
#X obj 243 420 aooch 3 \$1;
#X obj 338 420 aooch 4 \$1;
#X obj 433 420 aooch 5 \$1;
#X obj 528 420 aooch 6 \$1;
#X obj 623 420 aooch 7 \$1;
#X obj 718 420 aooch 8 \$1;
#X obj 28 126 cnv 15 410 250 empty empty empty 20 12 0 14 -162722 -66577
0;
#X obj 34 153 aoosend 1 \$1;
#X obj 134 153 aoosend 2 \$1;
#X obj 711 129 cnv 15 150 250 empty empty empty 20 12 0 14 -162722
-66577 0;
#N canvas 433 116 625 460 master 1;
#X obj 247 210 *~ 1;
#X obj 337 211 *~ 1;
#X obj 254 404 dac~;
#X obj 107 137 vsl 15 128 0 1.3 0 0 empty empty empty 0 -9 0 10 -162280
-1 -1 9769 1;
#X obj 339 91 t f f;
#X obj 132 143 vu 8 120 empty empty -1 -8 0 10 -66577 -1 0 0;
#X obj 146 143 vu 8 120 empty empty -1 -8 0 10 -66577 -1 1 0;
#X obj 428 296 - 100;
#X obj 368 293 - 100;
#X obj 368 5 catch~ busr;
#X obj 261 5 catch~ busl;
#X obj 475 32 loadbang;
#X msg 485 56 1;
#X obj 161 278 tgl 15 0 empty empty empty 17 7 0 10 -162280 -1 -1 1
1;
#X msg 154 330 \; pd dsp \$1 \;;
#X text 125 276 dsp:;
#N canvas 0 50 949 611 monitor 0;
#X obj 129 107 catch~ 1-monitor;
#X obj 192 442 *~ 1;
#X obj 321 544 outlet~;
#X obj 394 545 outlet~;
#X obj 271 444 *~ 1;
#X obj 341 446 *~ 1;
#X obj 438 439 *~ 1;
#X obj 291 107 catch~ 2-monitor;
#X obj 451 108 catch~ 3-monitor;
#X obj 597 108 catch~ 4-monitor;
#X obj 194 218 delread4~ a1;
#X obj 148 139 delwrite~ a1 500;
#X obj 299 224 delread4~ a2;
#X obj 424 226 delread4~ a3;
#X obj 534 226 delread4~ a4;
#X obj 594 145 delwrite~ a4 500;
#X obj 440 141 delwrite~ a3 500;
#X obj 283 139 delwrite~ a2 500;
#X obj 758 161 r indel;
#X obj 758 185 t f f f f;
#X obj 554 344 r m1;
#X obj 608 344 r m2;
#X obj 660 345 r m3;
#X obj 714 345 r m4;
#X connect 0 0 11 0;
#X connect 1 0 2 0;
#X connect 1 0 3 0;
#X connect 4 0 2 0;
#X connect 4 0 3 0;
#X connect 5 0 2 0;
#X connect 5 0 3 0;
#X connect 6 0 2 0;
#X connect 6 0 3 0;
#X connect 7 0 17 0;
#X connect 8 0 16 0;
#X connect 9 0 15 0;
#X connect 10 0 1 0;
#X connect 12 0 4 0;
#X connect 13 0 5 0;
#X connect 14 0 6 0;
#X connect 18 0 19 0;
#X connect 19 0 10 0;
#X connect 19 1 12 0;
#X connect 19 2 13 0;
#X connect 19 3 14 0;
#X connect 20 0 1 1;
#X connect 21 0 4 1;
#X connect 22 0 5 1;
#X connect 23 0 6 1;
#X restore 154 6 pd monitor;
#X obj 484 87 t f f b;
#N canvas 232 80 495 377 about 0;
#X obj 181 14 inlet;
#X obj 215 51 t b b;
#X obj 186 270 print vrrl;
#X msg 232 226 (c) lucarda;
#X msg 260 174 v0.1.1-test3;
#X connect 0 0 1 0;
#X connect 1 0 3 0;
#X connect 1 1 4 0;
#X connect 3 0 2 0;
#X connect 4 0 2 0;
#X restore 514 173 pd about;
#X obj 362 244 env~ 2048;
#X obj 420 244 env~ 2048;
#X connect 0 0 2 0;
#X connect 0 0 19 0;
#X connect 1 0 2 1;
#X connect 1 0 20 0;
#X connect 3 0 4 0;
#X connect 4 0 0 1;
#X connect 4 1 1 1;
#X connect 7 0 6 0;
#X connect 8 0 5 0;
#X connect 9 0 1 0;
#X connect 10 0 0 0;
#X connect 11 0 12 0;
#X connect 12 0 17 0;
#X connect 13 0 14 0;
#X connect 16 0 0 0;
#X connect 16 1 1 0;
#X connect 17 0 3 0;
#X connect 17 1 13 0;
#X connect 17 2 18 0;
#X connect 19 0 8 0;
#X connect 20 0 7 0;
#X coords 0 -1 1 1 85 200 1 100 100;
#X restore 744 149 pd master;
#X msg 134 382;
#X obj 83 7 cnv 15 750 105 empty empty empty 20 12 0 14 -162722 -66577
0;
#N canvas 112 57 1100 630 connect 0;
#X symbolatom 443 136 10 0 0 0 - - -;
#X symbolatom 443 158 10 0 0 0 - - -;
#X obj 216 109 hradio 15 1 0 2 empty empty empty 0 -8 0 10 -162280
-1 -1 0;
#X obj 960 376 list append;
#X obj 1034 352 symbol;
#X obj 895 345 list append;
#X obj 966 316 symbol;
#X obj 1165 108 f;
#X obj 1162 135 sel 0;
#X symbolatom 166 135 30 0 0 0 - - -;
#X symbolatom 166 163 10 0 0 0 - - -;
#X obj 890 293 list append;
#X obj 849 233 bng 15 250 50 0 empty empty empty 17 7 0 10 -262144
-1 -1;
#X obj 873 259 list append;
#X obj 947 235 symbol;
#X msg 873 233 connect;
#X msg 1198 219 vrr.nubegris.com.ar 9898;
#X obj 1203 255 list split 1;
#X msg 1159 186 vrr.iem.at 7077;
#X obj 1228 300 makefilename %d;
#X obj 957 409 list trim;
#X symbolatom 590 136 10 0 0 0 - - -;
#X symbolatom 590 160 10 0 0 0 - - -;
#X obj 1237 502 list append;
#X obj 1328 445 symbol;
#X obj 1196 468 list append;
#X obj 1270 444 symbol;
#X msg 1186 436 group_join;
#X obj 1244 531 list trim;
#X obj 772 173 tgl 15 0 empty empty empty 17 7 0 10 -162280 -1 -1 0
1;
#X msg 1086 457 disconnect;
#N canvas 235 207 823 470 text 0;
#X obj 115 17 inlet;
#X obj 177 132 route peer_join peer_leave;
#X msg 212 344 bang;
#X obj 182 317 t l b;
#X obj 182 292 list;
#X obj 205 18 inlet;
#X msg 207 56 clear;
#X obj 355 358 symbol;
#X msg 356 330 \$2;
#X obj 356 303 list;
#X obj 601 132 until;
#X msg 607 27 bang;
#X obj 610 216 + 1;
#X obj 612 251 t f f;
#X msg 608 173 1;
#X msg 656 177 -1;
#X msg 604 311 \$2;
#X msg 733 330 set;
#X obj 603 337 symbol;
#X msg 602 359 add2 \$1;
#X obj 607 54 t b b b;
#X obj 195 201 t b a;
#X obj 346 197 t b a;
#X obj 207 84 text define peers;
#X obj 212 369 text size peers;
#X obj 180 418 text set peers;
#X obj 354 415 text delete peers;
#X obj 355 382 text search peers 1;
#X obj 604 286 text get peers;
#X obj 600 106 text size peers;
#X obj 641 406 s peerslist;
#X obj 735 169 loadbang;
#X connect 0 0 1 0;
#X connect 1 0 21 0;
#X connect 1 1 22 0;
#X connect 2 0 24 0;
#X connect 3 0 25 0;
#X connect 3 1 2 0;
#X connect 4 0 3 0;
#X connect 5 0 6 0;
#X connect 6 0 23 0;
#X connect 7 0 27 0;
#X connect 8 0 7 0;
#X connect 9 0 8 0;
#X connect 10 0 14 0;
#X connect 11 0 20 0;
#X connect 12 0 13 0;
#X connect 13 0 28 0;
#X connect 13 1 12 1;
#X connect 14 0 12 0;
#X connect 15 0 12 1;
#X connect 16 0 18 0;
#X connect 17 0 30 0;
#X connect 18 0 19 0;
#X connect 19 0 30 0;
#X connect 20 0 29 0;
#X connect 20 1 15 0;
#X connect 20 2 17 0;
#X connect 21 0 11 0;
#X connect 21 1 4 0;
#X connect 22 0 11 0;
#X connect 22 1 9 0;
#X connect 24 0 25 1;
#X connect 27 0 26 0;
#X connect 28 0 16 0;
#X connect 29 0 10 0;
#X connect 31 0 17 0;
#X restore 1069 588 pd text;
#X obj 1021 451 t a b;
#X obj 949 480 aoo_client \$1;
#X obj 1014 554 sel 1;
#X obj 948 513 t f f;
#X obj 958 438 t a;
#X obj 965 269 f;
#X text 101 134 server:;
#X text 115 161 port:;
#X text 393 134 user:;
#X text 392 158 pass:;
#X text 543 160 pass:;
#X text 105 107 known servers:;
#X text 702 151 connect:;
#X obj 698 281 sel 1;
#X obj 772 136 vradio 15 1 0 2 empty empty empty 0 -8 0 10 -162280
-1 -1 0;
#X text 681 134 disconnect:;
#X obj 478 17 loadbang;
#X msg 448 57 0;
#X text 536 134 group:;
#X connect 0 0 6 0;
#X connect 1 0 4 0;
#X connect 2 0 7 0;
#X connect 3 0 20 0;
#X connect 4 0 3 1;
#X connect 5 0 3 0;
#X connect 6 0 5 1;
#X connect 7 0 8 0;
#X connect 8 0 18 0;
#X connect 8 1 16 0;
#X connect 9 0 14 0;
#X connect 10 0 37 0;
#X connect 11 0 5 0;
#X connect 12 0 15 0;
#X connect 13 0 11 0;
#X connect 14 0 13 1;
#X connect 15 0 13 0;
#X connect 16 0 17 0;
#X connect 17 0 9 0;
#X connect 17 1 19 0;
#X connect 18 0 17 0;
#X connect 19 0 10 0;
#X connect 20 0 36 0;
#X connect 21 0 26 0;
#X connect 22 0 24 0;
#X connect 23 0 28 0;
#X connect 24 0 23 1;
#X connect 25 0 23 0;
#X connect 26 0 25 1;
#X connect 27 0 25 0;
#X connect 28 0 32 0;
#X connect 30 0 33 0;
#X connect 32 0 33 0;
#X connect 32 1 31 1;
#X connect 33 0 35 0;
#X connect 33 1 31 0;
#X connect 34 0 27 0;
#X connect 35 0 29 0;
#X connect 35 1 34 0;
#X connect 36 0 33 0;
#X connect 37 0 11 1;
#X connect 45 0 12 0;
#X connect 45 1 30 0;
#X connect 46 0 45 0;
#X connect 48 0 49 0;
#X connect 49 0 2 0;
#X coords 0 -1 1 1 700 100 2 100 100;
#X restore 106 8 pd connect;
#X obj 237 153 aoosend 3 \$1;
#X obj 337 153 aoosend 4 \$1;
#X obj 429 126 cnv 15 180 120 empty empty empty 20 12 0 14 -162722
-66577 0;
#N canvas 0 50 559 417 input_delay 0;
#X floatatom 109 168 5 0 500 0 - - -;
#X obj 131 356 s indel;
#X obj 225 12 loadbang;
#X text 150 169 ms;
#X obj 275 295 s m1;
#X obj 324 295 s m2;
#X obj 382 296 s m3;
#X obj 431 296 s m4;
#X obj 108 127 tgl 15 0 empty empty empty 17 7 0 10 -128992 -1 -1 0
1;
#X obj 135 127 tgl 15 0 empty empty empty 17 7 0 10 -128992 -1 -1 0
1;
#X obj 164 127 tgl 15 0 empty empty empty 17 7 0 10 -128992 -1 -1 0
1;
#X obj 191 127 tgl 15 0 empty empty empty 17 7 0 10 -128992 -1 -1 0
1;
#X text 108 105 monitor inputs?;
#X text 107 146 monitor delay?;
#X msg 230 63 0;
#X obj 291 57 t f f f f f;
#X connect 0 0 1 0;
#X connect 2 0 14 0;
#X connect 8 0 4 0;
#X connect 9 0 5 0;
#X connect 10 0 6 0;
#X connect 11 0 7 0;
#X connect 14 0 15 0;
#X connect 15 0 8 0;
#X connect 15 1 9 0;
#X connect 15 2 10 0;
#X connect 15 3 11 0;
#X connect 15 4 0 0;
#X coords 0 -1 1 1 140 100 2 100 100;
#X restore 445 137 pd input_delay;
#X obj 541 255 cnv 15 130 140 empty empty empty 20 12 0 14 -162722
-66577 0;
#X obj 557 267 metron;
#X connect 0 0 15 0;
