#N canvas 0 50 856 655 12;
#X obj 260 389 list split 2;
#X obj 300 413 list append 1;
#X obj 300 439 list prepend invite;
#X obj 296 461 list trim;
#X obj 388 366 + 1;
#X obj 266 295 f;
#X obj 126 154 hradio 12 1 0 4 empty empty empty 0 -8 0 10 -162280
-1 -1 0;
#X obj 387 389 f;
#X msg 385 479 uninvite;
#X obj 280 224 t b f;
#X obj 264 321 t f b b;
#X symbolatom 103 130 10 0 0 0 - - -;
#X obj 363 547 *~ 1;
#X obj 356 582 *~ 1;
#X obj 409 582 *~ 1;
#X obj 110 303 hsl 60 10 -1 1 0 0 empty empty empty -2 -8 0 10 -162280
-1 -1 2950 1;
#X obj 584 454 t f f;
#X obj 577 486 * -1;
#X obj 635 544 clip 0 1;
#X obj 569 542 clip 0 1;
#X obj 577 515 + 1;
#X obj 616 487 + 1;
#X obj 104 158 vsl 15 128 0 1.5 0 0 empty empty empty 0 -9 0 10 -162280
-1 -1 8467 1;
#X obj 126 176 tgl 15 0 empty empty on 17 7 0 10 -162280 -1 -1 0 1
;
#X obj 533 235 sel 1;
#X obj 645 319 bng 15 250 50 0 empty empty empty 17 7 0 10 -262144
-1 -1;
#X obj 362 519 aoo_receive~ \$2 \$1;
#X obj 260 365 text get peers;
#X obj 267 267 text search peers 1;
#X obj 308 627 throw~ busl;
#X obj 414 627 throw~ busr;
#X obj 685 56 loadbang;
#X obj 685 83 t b b;
#X msg 716 107 0;
#X msg 679 108 1;
#X obj 680 132 t f f f;
#X msg 665 381 label muted;
#X obj 645 284 t b b;
#X msg 669 349 label on;
#X obj 530 265 t b b;
#X connect 0 1 1 0;
#X connect 1 0 2 0;
#X connect 2 0 3 0;
#X connect 3 0 26 0;
#X connect 4 0 7 0;
#X connect 5 0 10 0;
#X connect 6 0 9 0;
#X connect 7 0 1 1;
#X connect 8 0 26 0;
#X connect 9 0 5 0;
#X connect 9 1 4 0;
#X connect 10 0 27 0;
#X connect 10 1 7 0;
#X connect 10 2 8 0;
#X connect 11 0 28 0;
#X connect 12 0 13 0;
#X connect 12 0 14 0;
#X connect 13 0 29 0;
#X connect 14 0 30 0;
#X connect 15 0 16 0;
#X connect 16 0 17 0;
#X connect 16 1 21 0;
#X connect 17 0 20 0;
#X connect 18 0 14 1;
#X connect 19 0 13 1;
#X connect 20 0 19 0;
#X connect 21 0 18 0;
#X connect 22 0 12 1;
#X connect 23 0 24 0;
#X connect 24 0 39 0;
#X connect 24 1 37 0;
#X connect 25 0 5 0;
#X connect 26 0 12 0;
#X connect 27 0 0 0;
#X connect 28 0 5 0;
#X connect 31 0 32 0;
#X connect 32 0 34 0;
#X connect 32 1 33 0;
#X connect 33 0 35 0;
#X connect 34 0 22 0;
#X connect 35 0 15 0;
#X connect 35 1 23 0;
#X connect 35 2 6 0;
#X connect 36 0 23 0;
#X connect 37 0 25 0;
#X connect 37 1 38 0;
#X connect 38 0 23 0;
#X connect 39 0 8 0;
#X connect 39 1 36 0;
#X coords 0 -1 1 1 85 220 1 100 100;
