#N canvas 9 50 656 592 12;
#X obj 123 50 - 100;
#X obj 121 165 vu 8 120 empty empty -1 -8 0 10 -66577 -1 1 0;
#X msg 389 283 start;
#X msg 393 235 stop;
#X obj 131 123 tgl 15 0 empty empty off 17 7 0 10 -162280 -1 -1 1 1
;
#X obj 348 205 sel 0;
#X obj 331 467 aoo_send~ \$2 \$1;
#X obj 301 21 adc~ \$1;
#X obj 48 25 loadbang;
#X msg 48 54 1;
#X msg 163 315 vis 1;
#X obj 163 273 bng 15 250 50 0 empty empty empty 17 7 0 10 -162280
-1 -1;
#N canvas 0 50 592 355 \$0-pcm 1;
#X obj 56 76 cnv 15 500 150 empty empty empty 20 12 0 14 -162722 -66577
0;
#X obj 70 96 pcm;
#X obj 70 246 outlet;
#X text 161 31 audio stream out;
#X connect 1 0 2 0;
#X restore 411 408 pd \$0-pcm;
#X obj 160 356 s pd-\$0-pcm;
#X msg 419 330 label off;
#X msg 408 367 label on;
#X obj 104 156 vsl 12 128 0 2 0 0 empty empty 1.000000 0 -9 0 10 -128992
-1 -1 6350 1;
#X obj 48 81 t f f;
#X obj 300 48 *~ 0;
#X obj 70 337 t f f;
#X msg 10 312 label \$1;
#X obj 68 375 makefilename %f;
#X obj 280 532 throw~ \$1-monitor;
#X obj 505 402 catch~ \$1-metro;
#X obj 121 22 env~ 2048;
#X connect 0 0 1 0;
#X connect 2 0 6 0;
#X connect 2 0 15 0;
#X connect 3 0 6 0;
#X connect 3 0 14 0;
#X connect 4 0 5 0;
#X connect 5 0 2 0;
#X connect 5 1 3 0;
#X connect 7 0 18 0;
#X connect 7 0 24 0;
#X connect 8 0 9 0;
#X connect 9 0 17 0;
#X connect 10 0 13 0;
#X connect 11 0 10 0;
#X connect 12 0 6 0;
#X connect 14 0 4 0;
#X connect 15 0 4 0;
#X connect 16 0 19 0;
#X connect 17 0 16 0;
#X connect 17 1 4 0;
#X connect 18 0 6 0;
#X connect 18 0 22 0;
#X connect 19 0 21 0;
#X connect 19 1 18 1;
#X connect 20 0 16 0;
#X connect 21 0 20 0;
#X connect 23 0 6 0;
#X connect 24 0 0 0;
#X coords 0 -1 1 1 85 200 1 100 100;
