#N canvas 292 112 907 573 12;
#X obj 357 150 + 1;
#X msg 371 117 0;
#X msg 336 113 1;
#X obj 340 80 metro 1000;
#X obj 354 221 sel 4;
#X obj 149 108 tgl 15 0 empty empty empty 17 7 0 10 -128992 -1 -1 0
1;
#X obj 343 35 t f f;
#X obj 621 126 array define metrob;
#X obj 622 96 array define metroa;
#X obj 621 62 soundfiler;
#X msg 621 14 read -resize metroa.wav metroa \, read -resize metrob.wav
metrob, f 32;
#X obj 363 308 tabplay~ metroa;
#X obj 421 285 tabplay~ metrob;
#X msg 422 257 bang;
#X floatatom 149 128 5 0 0 0 - - -;
#X obj 423 345 *~ 1;
#X obj 353 191 t f f f;
#X obj 401 222 sel 1;
#X obj 490 132 / 60;
#X obj 491 177 /;
#X msg 491 154 1000 \$1;
#X floatatom 149 151 5 0 0 0 - - -;
#X obj 529 77 t b f;
#X text 104 105 metro;
#X text 104 128 bpm;
#X text 103 174 vol;
#X floatatom 149 174 5 0 200 0 - - -;
#X text 104 195 more;
#X obj 149 197 bng 15 250 50 0 empty empty empty 17 7 0 10 -128992
-1 -1;
#X obj 156 9 loadbang;
#X msg 160 64 120;
#X msg 197 65 4;
#X msg 235 63 100;
#X obj 161 38 t b b b b;
#X obj 616 435 *~ 1;
#X obj 555 538 throw~ busl;
#X obj 661 538 throw~ busr;
#X obj 238 231 / 100;
#N canvas 111 58 451 243 sendmetro 0;
#X obj 61 47 cnv 15 320 170 empty empty empty 20 12 0 14 -162722 -66577
0;
#N canvas 0 50 708 524 metro-gop 0;
#X obj 297 430 throw~ 1-metro;
#X obj 397 490 throw~ 3-metro;
#X obj 437 515 throw~ 4-metro;
#X obj 344 463 throw~ 2-metro;
#X obj 430 161 inlet~;
#X text 133 111 mix metro into sending channel;
#X text 144 136 send1;
#X text 194 136 send2;
#X text 242 135 send3;
#X text 292 135 send4;
#X floatatom 149 165 5 0 200 0 - - -;
#X floatatom 195 165 5 0 200 0 - - -;
#X floatatom 243 165 5 0 200 0 - - -;
#X floatatom 291 165 5 0 200 0 - - -;
#X obj 208 267 / 100;
#X obj 251 292 / 100;
#X obj 309 313 / 100;
#X obj 352 338 / 100;
#X obj 424 405 *~ 0;
#X obj 461 426 *~ 0;
#X obj 500 451 *~ 0;
#X obj 537 472 *~ 0;
#X text 119 203 use de m key to start/stop the metro?;
#X obj 230 226 hradio 15 1 0 2 empty empty empty 0 -8 0 10 -128992
-1 -1 0;
#X text 208 224 no;
#X text 265 224 yes;
#X obj 187 372 s metrokey;
#X connect 4 0 18 0;
#X connect 4 0 19 0;
#X connect 4 0 20 0;
#X connect 4 0 21 0;
#X connect 10 0 14 0;
#X connect 11 0 15 0;
#X connect 12 0 16 0;
#X connect 13 0 17 0;
#X connect 14 0 18 1;
#X connect 15 0 19 1;
#X connect 16 0 20 1;
#X connect 17 0 21 1;
#X connect 18 0 0 0;
#X connect 19 0 3 0;
#X connect 20 0 1 0;
#X connect 21 0 2 0;
#X connect 23 0 26 0;
#X coords 0 -1 1 1 300 150 2 100 100;
#X restore 74 59 pd metro-gop;
#X obj 96 14 inlet~;
#X connect 2 0 1 0;
#X coords 0 243 1 242 300 100 0;
#X restore 226 471 pd sendmetro;
#X msg 163 315 vis 1;
#X obj 160 356 s pd-sendmetro;
#X obj 50 18 key;
#X obj 51 45 sel 109;
#X obj 44 283 spigot 0;
#X obj 98 250 r metrokey;
#X connect 0 0 16 0;
#X connect 1 0 0 1;
#X connect 2 0 0 0;
#X connect 3 0 2 0;
#X connect 4 0 1 0;
#X connect 5 0 6 0;
#X connect 6 0 3 0;
#X connect 6 1 1 0;
#X connect 10 0 9 0;
#X connect 11 0 15 0;
#X connect 12 0 15 0;
#X connect 13 0 12 0;
#X connect 14 0 18 0;
#X connect 15 0 34 0;
#X connect 15 0 38 0;
#X connect 16 0 4 0;
#X connect 16 1 0 1;
#X connect 16 2 17 0;
#X connect 17 0 13 0;
#X connect 17 1 11 0;
#X connect 18 0 20 0;
#X connect 19 0 3 1;
#X connect 20 0 19 0;
#X connect 21 0 22 0;
#X connect 22 0 1 0;
#X connect 22 1 4 1;
#X connect 26 0 37 0;
#X connect 28 0 39 0;
#X connect 29 0 33 0;
#X connect 30 0 14 0;
#X connect 31 0 21 0;
#X connect 32 0 26 0;
#X connect 33 0 30 0;
#X connect 33 1 31 0;
#X connect 33 2 32 0;
#X connect 33 3 10 0;
#X connect 34 0 35 0;
#X connect 34 0 36 0;
#X connect 37 0 34 1;
#X connect 39 0 40 0;
#X connect 41 0 42 0;
#X connect 42 0 43 0;
#X connect 43 0 5 0;
#X connect 44 0 43 1;
#X coords 0 -1 1 1 100 120 2 100 100;
