#N canvas 416 232 962 559 12;
#X obj 112 126 vradio 15 1 0 4 empty empty empty 0 -8 0 10 -162280
-1 -1 0;
#X msg 480 302 64;
#X msg 498 330 128;
#X msg 519 357 256;
#X msg 537 386 512;
#X obj 482 273 sel 0 1 2 3;
#X msg 614 332 44100;
#X msg 621 356 48000;
#X msg 605 309 22050;
#X obj 579 385 t b f;
#X obj 519 424 pack 64 44100 4;
#X msg 717 279 2;
#X msg 728 305 3;
#X msg 734 331 4;
#X obj 712 377 t b f;
#X obj 206 130 vradio 15 1 0 3 empty empty empty 0 -8 0 10 -162280
-1 -1 0;
#X obj 604 275 sel 0 1 2;
#X obj 315 129 vradio 15 1 0 3 empty empty empty 0 -8 0 10 -162280
-1 -1 0;
#X obj 718 250 sel 0 1 2;
#X msg 518 453 format pcm \$1 \$2 \$3;
#X obj 614 9 loadbang;
#X obj 615 35 t b b b;
#X msg 653 78 0;
#X msg 591 103 0;
#X text 140 125 64;
#X text 133 140 128;
#X text 133 153 256;
#X text 133 169 512;
#X text 110 103 block;
#X text 224 128 22050;
#X text 224 144 44100;
#X text 224 158 48000;
#X text 314 108 bit depth;
#X text 342 126 16;
#X text 342 142 24;
#X text 342 158 32;
#X text 203 107 sample rate;
#X obj 541 516 outlet;
#X msg 441 373 bang;
#X obj 441 141 hradio 15 1 0 2 empty empty empty 0 -8 0 10 -162280
-1 -1 1;
#X text 382 139 PCM <--;
#X text 474 139 --> OPUS;
#X obj 114 241 sel 1;
#X msg 630 103 0;
#X msg 142 291 format opus 128 24000 auto 5 auto;
#X connect 0 0 5 0;
#X connect 1 0 10 0;
#X connect 2 0 10 0;
#X connect 3 0 10 0;
#X connect 4 0 10 0;
#X connect 5 0 1 0;
#X connect 5 1 2 0;
#X connect 5 2 3 0;
#X connect 5 3 4 0;
#X connect 6 0 9 0;
#X connect 7 0 9 0;
#X connect 8 0 9 0;
#X connect 9 0 10 0;
#X connect 9 1 10 1;
#X connect 10 0 19 0;
#X connect 11 0 14 0;
#X connect 12 0 14 0;
#X connect 13 0 14 0;
#X connect 14 0 10 0;
#X connect 14 1 10 2;
#X connect 15 0 16 0;
#X connect 16 0 8 0;
#X connect 16 1 6 0;
#X connect 16 2 7 0;
#X connect 17 0 18 0;
#X connect 18 0 11 0;
#X connect 18 1 12 0;
#X connect 18 2 13 0;
#X connect 19 0 37 0;
#X connect 20 0 21 0;
#X connect 21 0 23 0;
#X connect 21 1 43 0;
#X connect 21 2 22 0;
#X connect 22 0 17 0;
#X connect 23 0 0 0;
#X connect 38 0 10 0;
#X connect 39 0 42 0;
#X connect 42 0 44 0;
#X connect 42 1 38 0;
#X connect 43 0 15 0;
#X connect 44 0 37 0;
#X coords 0 -1 1 1 450 100 2 100 100;
